<svg version="1.1" id="Layer_1" xmlns="http://www.w3.org/2000/svg" xmlns:xlink="http://www.w3.org/1999/xlink" x="0px" y="0px"
	 width="100%" viewBox="0 0 192 192" enable-background="new 0 0 192 192" xml:space="preserve">
<path fill="#FDFDFD" opacity="1.000000" stroke="none" 
	d="
M113.000000,193.000000 
	C75.333336,193.000000 38.166672,193.000000 1.000005,193.000000 
	C1.000003,129.000000 1.000003,65.000015 1.000002,1.000014 
	C64.999992,1.000009 128.999985,1.000009 192.999969,1.000005 
	C192.999985,64.999985 192.999985,128.999969 193.000000,192.999969 
	C166.500000,193.000000 140.000000,193.000000 113.000000,193.000000 
M98.668144,114.555702 
	C98.539314,113.918015 98.410477,113.280319 98.281639,112.642632 
	C97.842667,113.391762 97.403687,114.140892 96.943382,115.672157 
	C96.770760,116.431870 96.598145,117.191589 95.965500,118.358765 
	C96.257317,119.017265 96.549133,119.675774 96.840935,120.334274 
	C97.202423,119.543518 97.563919,118.752762 98.047142,117.213364 
	C98.116539,116.458450 98.185936,115.703529 98.668144,114.555702 
M73.852875,155.500000 
	C73.852875,140.055069 73.852875,124.610153 73.852875,108.592468 
	C88.431244,108.592468 102.500870,108.592468 116.823853,108.592468 
	C116.823853,103.106659 116.823853,98.196800 116.823853,92.612335 
	C102.451988,92.612335 88.251404,92.612335 74.121773,92.612335 
	C74.121773,76.856285 74.121773,61.774345 74.121773,46.697056 
	C98.297791,46.697056 122.165199,46.697056 146.054337,46.697056 
	C146.316620,50.032593 146.551086,53.014507 146.727631,55.259682 
	C153.534500,48.874798 160.249680,42.575909 167.229279,36.028996 
	C160.659988,29.073778 154.247940,22.285028 147.835876,15.496279 
	C147.448883,15.713257 147.061874,15.930235 146.674881,16.147213 
	C146.470749,19.680067 146.266617,23.212921 146.073441,26.556211 
	C110.219429,26.556211 74.822380,26.556211 39.210709,26.556211 
	C39.210709,33.171585 39.210709,39.438915 39.210709,46.243107 
	C44.303127,46.243107 49.210903,46.243107 54.292519,46.243107 
	C54.292519,61.986370 54.292519,77.190857 54.292519,92.418167 
	C50.148453,92.418167 46.378338,92.418167 42.365860,92.418167 
	C42.186234,89.551544 42.020607,86.908295 41.765694,82.840103 
	C35.323109,89.978867 29.937740,95.946175 24.356400,102.130630 
	C30.259840,107.582039 35.643929,112.553871 41.840031,118.275536 
	C42.073395,114.198334 42.220871,111.621696 42.365540,109.094131 
	C46.563316,109.094131 50.443050,109.094131 54.684338,109.094131 
	C54.684338,134.929596 54.684338,160.352219 54.684338,185.840729 
	C61.245098,185.840729 67.422127,185.840729 73.851166,185.840729 
	C73.851166,175.791122 73.851166,166.145569 73.852875,155.500000 
M88.541077,120.965332 
	C88.855110,121.469696 89.169136,121.974052 89.483170,122.478416 
	C90.869644,121.169456 92.353363,119.937225 93.521896,118.456306 
	C93.671204,118.267075 92.177650,116.781563 91.285339,115.703438 
	C90.256050,117.663612 89.538528,119.030052 88.541077,120.965332 
z"/>
<path fill="#040404" opacity="1.000000" stroke="none" 
	d="
M73.852020,156.000000 
	C73.851166,166.145569 73.851166,175.791122 73.851166,185.840729 
	C67.422127,185.840729 61.245098,185.840729 54.684338,185.840729 
	C54.684338,160.352219 54.684338,134.929596 54.684338,109.094131 
	C50.443050,109.094131 46.563316,109.094131 42.365540,109.094131 
	C42.220871,111.621696 42.073395,114.198334 41.840031,118.275536 
	C35.643929,112.553871 30.259840,107.582039 24.356400,102.130630 
	C29.937740,95.946175 35.323109,89.978867 41.765694,82.840103 
	C42.020607,86.908295 42.186234,89.551544 42.365860,92.418167 
	C46.378338,92.418167 50.148453,92.418167 54.292519,92.418167 
	C54.292519,77.190857 54.292519,61.986370 54.292519,46.243107 
	C49.210903,46.243107 44.303127,46.243107 39.210709,46.243107 
	C39.210709,39.438915 39.210709,33.171585 39.210709,26.556211 
	C74.822380,26.556211 110.219429,26.556211 146.073441,26.556211 
	C146.266617,23.212921 146.470749,19.680067 146.674881,16.147213 
	C147.061874,15.930235 147.448883,15.713257 147.835876,15.496279 
	C154.247940,22.285028 160.659988,29.073778 167.229279,36.028996 
	C160.249680,42.575909 153.534500,48.874798 146.727631,55.259682 
	C146.551086,53.014507 146.316620,50.032593 146.054337,46.697056 
	C122.165199,46.697056 98.297791,46.697056 74.121773,46.697056 
	C74.121773,61.774345 74.121773,76.856285 74.121773,92.612335 
	C88.251404,92.612335 102.451988,92.612335 116.823853,92.612335 
	C116.823853,98.196800 116.823853,103.106659 116.823853,108.592468 
	C102.500870,108.592468 88.431244,108.592468 73.852875,108.592468 
	C73.852875,124.610153 73.852875,140.055069 73.852020,156.000000 
z"/>
<path fill="#F6F6F6" opacity="1.000000" stroke="none" 
	d="
M88.681046,120.680908 
	C89.538528,119.030052 90.256050,117.663612 91.285339,115.703438 
	C92.177650,116.781563 93.671204,118.267075 93.521896,118.456306 
	C92.353363,119.937225 90.869644,121.169456 89.483170,122.478416 
	C89.169136,121.974052 88.855110,121.469696 88.681046,120.680908 
z"/>
<path fill="#878787" opacity="1.000000" stroke="none" 
	d="
M97.925415,117.962006 
	C97.563919,118.752762 97.202423,119.543518 96.840942,120.334274 
	C96.549133,119.675774 96.257317,119.017265 96.570267,118.191925 
	C97.425156,118.004066 97.675293,117.983040 97.925415,117.962006 
z"/>
<path fill="#F6F6F6" opacity="1.000000" stroke="none" 
	d="
M96.964706,114.890022 
	C97.403687,114.140892 97.842667,113.391762 98.281647,112.642632 
	C98.410477,113.280319 98.539314,113.918015 98.139587,114.722458 
	C97.395599,114.889473 97.180161,114.889748 96.964706,114.890022 
z"/>
<path fill="#4D4D4D" opacity="1.000000" stroke="none" 
	d="
M96.954048,115.281090 
	C97.180161,114.889748 97.395599,114.889473 97.933182,114.918915 
	C98.185936,115.703529 98.116539,116.458450 97.986282,117.587692 
	C97.675293,117.983040 97.425156,118.004066 96.800278,117.988197 
	C96.598145,117.191589 96.770760,116.431870 96.954048,115.281090 
z"/>
</svg>